# xmcd CD database file
#
# Track frame offsets:
#	150
#	21733
#	42027
#	65941
#	89186
#	104076
#	125548
#	149666
#	168586
#	183323
#	203768
#	226763
#	245002
#	274881
#
# Disc length: 3971 seconds
#
# Revision: 0
# Processed by: cddbd v1.5.2PL0 Copyright (c) Steve Scherf et al.
# Submitted via: CDex 1.79
#
DISCID=e10f810e
DTITLE=Brandsma, Bert and Ehlers, Jan-Hendrik - Sophisticated Lady
DYEAR=2017
DGENRE=Jazz
TTITLE0=All The Things You Are
TTITLE1=Oh, Lady Be Good
TTITLE2=Sophisticated Lady
TTITLE3=Memories Od You
TTITLE4=At The Woodehoppers Ball
TTITLE5=On The Sunny Side Of The Street
TTITLE6=Honeysuckle Rose
TTITLE7=Stranger On The Shore
TTITLE8=Wild Cat Blues
TTITLE9=In A Sentimental Mood
TTITLE10=Some Of These Days
TTITLE11=C-Jam Blues
TTITLE12=Out Of Nowhere
TTITLE13=Back Home Again in Indiana
EXTD=YEAR: 2017
EXTT0=
EXTT1=
EXTT2=
EXTT3=
EXTT4=
EXTT5=
EXTT6=
EXTT7=
EXTT8=
EXTT9=
EXTT10=
EXTT11=
EXTT12=
EXTT13=
PLAYORDER=
